<svg viewBox="0 0 40 40" xmlns="http://www.w3.org/2000/svg"><path d="m18.663 30.489c-.72 0-1.36-.71-2.08-1.41-7.11-9.05-7.11-9.05-7.11-9.05-.72-1.42-.72-2.75.72-3.46 1.44-1.42 2.79-.79 3.51 0l4.96 6.29c11.34-18.17 11.34-18.17 11.34-18.17 1.44-1.41 2.79-2.12 4.23-1.41s1.44 2.83.72 4.17c-13.42 21.63-13.42 21.63-13.42 21.63-.72.7-1.44 1.41-2.87 1.41z" fill="#aee2b7" fill-rule="evenodd"/><path d="m18.484 1h-7.478c-6.15 0-10.006 4.354-10.006 10.518v16.628c0 6.164 3.838 10.518 10.006 10.518h17.648c6.17 0 10.008-4.354 10.008-10.518v-8.056" fill="none" stroke="#000" stroke-linecap="round" stroke-linejoin="round"/></svg>